<?xml version="1.0" encoding="utf-8"?>
<svg xmlns="http://www.w3.org/2000/svg" width="32.8084mm" height="32.8084mm" version="1.1" style="shape-rendering:geometricPrecision; text-rendering:geometricPrecision; image-rendering:optimizeQuality; fill-rule:evenodd; clip-rule:evenodd" viewBox="0 0 517.46 517.46" xmlns:bx="https://boxy-svg.com">
  <defs>
    <style type="text/css">
   
    .fil0 {fill:#9A8162;fill-rule:nonzero}
   
  </style>
    <bx:export>
      <bx:file format="svg" href="#Слой_x0020_1" units="mm"/>
    </bx:export>
  </defs>
  <g id="Слой_x0020_1">
    <g id="_1295607710544">
      <g>
        <path class="fil0" d="M81.79 448.61c0.42,0 0.42,0 0.83,0 0.42,0 0.42,0 0.83,0 0.42,0 0.42,0 0.83,0 0.42,0 0.42,0 0.83,0 0.42,0 0.42,0 0.83,-0.42 0.42,0 0.42,0 0.83,-0.42 0.42,0 0.42,-0.42 0.83,-0.42 0,0 0.42,0 0.42,0 0,0 0.42,0 0.42,-0.42 0.42,0 0.42,-0.42 0.83,-0.42 0.42,0 0.42,-0.42 0.83,-0.42 0.42,0 0.42,-0.42 0.83,-0.42 0,0 0.42,-0.42 0.42,-0.42 0,0 0.42,-0.42 0.42,-0.83 0,-0.42 0.42,-0.42 0.42,-0.83 0,0 0,0 0.42,-0.42 0,0 0,-0.42 0.42,-0.42 0,0 0,-0.42 0.42,-0.42 0,0 0,-0.42 0,-0.42 0,-0.42 0.42,-0.42 0.42,-0.83 0,-0.42 0.42,-0.42 0.42,-0.83 0,-0.42 0,-0.42 0.42,-0.83 0,-0.42 0,-0.42 0,-0.83 0,-0.42 0,-0.42 0,-0.83 0,-0.42 0,-0.42 0,-0.83 0,-0.42 0,-0.42 0,-0.83 0,0 0,-0.42 0,-0.42 0,0 0,-0.42 0,-0.42 0,-0.42 0,-0.42 0,-0.83 0,-0.42 0,-0.42 0,-0.83 0,-0.42 0,-0.42 0,-0.83 0,-0.42 0,-0.42 0,-0.83 0,-0.42 0,-0.42 -0.42,-0.83 0,-0.42 0,-0.42 -0.42,-0.83 0,-0.42 -0.42,-0.42 -0.42,-0.83 0,0 0,-0.42 0,-0.42 0,0 0,-0.42 -0.42,-0.42 0,-0.42 -0.42,-0.42 -0.42,-0.83 0,-0.42 -0.42,-0.42 -0.42,-0.83 0,-0.42 -0.42,-0.42 -0.42,-0.83 0,0 -0.42,-0.42 -0.42,-0.42 0,0 -0.42,-0.42 -0.83,-0.42 -0.42,0 -0.42,-0.42 -0.83,-0.42 -0.42,0 -0.42,-0.42 -0.83,-0.42 0,0 -0.42,0 -0.42,-0.42 0,0 -0.42,0 -0.42,0 -0.42,0 -0.42,-0.42 -0.83,-0.42 -0.42,0 -0.42,-0.42 -0.83,-0.42 -0.42,0 -0.42,0 -0.83,-0.42 -0.42,0 -0.42,0 -0.83,0 -0.42,0 -0.42,0 -0.83,0 -0.42,0 -0.42,0 -0.83,0 -0.42,0 -0.42,0 -0.83,0 0,0 -0.42,0 -0.42,0 0,0 -0.42,0 -0.42,0 -0.42,0 -0.42,0 -0.83,0 -0.42,0 -0.42,0 -0.83,0 -0.42,0 -0.42,0 -0.83,0 -0.42,0 -0.42,0 -0.83,0 -0.42,0 -0.42,0 -0.83,0.42 -0.42,0 -0.42,0 -0.83,0.42 -0.42,0 -0.42,0.42 -0.83,0.42 0,0 -0.42,0 -0.42,0 0,0 -0.42,0 -0.42,0.42 0,0 -0.42,0 -0.42,0.42 0,0 0,0 -0.42,0.42 -0.42,0 -0.42,0.42 -0.83,0.42 -0.42,0 -0.42,0.42 -0.83,0.42 0,0 -0.42,0.42 -0.42,0.42 0,0 -0.42,0.42 -0.42,0.83 0,0.42 -0.42,0.42 -0.42,0.83 0,0.42 -0.42,0.42 -0.42,0.83 0,0 0,0.42 -0.42,0.42 0,0 0,0.42 0,0.42 0,0.42 -0.42,0.42 -0.42,0.83 0,0.42 -0.42,0.42 -0.42,0.83 0,0.42 0,0.42 -0.42,0.83 0,0.42 0,0.42 0,0.83 0,0.42 0,0.42 0,0.83 0,0.42 0,0.42 0,0.83 0,0.42 0,0.42 0,0.83 0,0 0,0.42 0,0.42 0,0 0,0.42 0,0.42 0,0.42 0,0.42 0,0.83 0,0.42 0,0.42 0,0.83 0,0.42 0,0.42 0,0.83 0,0.42 0,0.42 0,0.83 0,0.42 0,0.42 0.42,0.83 0,0.42 0,0.42 0.42,0.83 0,0.42 0.42,0.42 0.42,0.83 0,0 0,0.42 0,0.42 0,0 0,0.42 0.42,0.42 0,0.42 0.42,0.42 0.42,0.83 0,0.42 0.42,0.42 0.42,0.83 0,0.42 0.42,0.42 0.42,0.83 0,0 0,0 0.42,0.42 0,0 0,0 0.42,0.42 0,0 0.42,0.42 0.83,0.42 0.42,0 0.42,0.42 0.83,0.42 0.42,0 0.42,0.42 0.83,0.42 0,0 0.42,0 0.42,0.42 0,0.42 0.42,0 0.42,0 0.42,0 0.42,0.42 0.83,0.42 0.42,0 0.42,0.42 0.83,0.42 0.42,0 0.42,0 0.83,0.42 0.42,0 0.42,0 0.83,0 0.42,0 0.42,0 0.83,0 0.42,0 0.42,0 0.83,0 0.42,0 0.42,0 0.83,0 -0.83,-0.83 -0.42,-0.83 0,-0.83 -0.42,0 0,0 0,0z"/>
        <path class="fil0" d="M499.52 288.36l-81.38 -141.05 -114.34 66.35 66.35 -114.76 -141.47 -81.38 -65.93 114.34 0 -131.87 -162.75 0 0 436.09c0,45.07 36.31,81.38 81.38,81.38l0 0 436.09 0 0 -162.75 -132.29 0 114.34 -66.35zm-22.54 -5.84l-83.04 47.99 -64.68 -112.26 83.04 -47.99 64.68 112.26zm-162.33 -55.92l64.68 111.84 -93.89 54.25 -42.56 -73.45 44.23 -76.37 27.54 -16.28zm-168.59 27.96l0 100.15 -129.36 0 0 -100.15 129.36 0zm-129.36 -16.69l0 -108.5 129.36 0 0 108.5 -129.36 0zm146.06 35.47l65.52 37.56 -65.52 113.51 0 -151.07zm70.52 62.6l37.97 65.52 -113.09 65.52 75.12 -131.04zm29.63 89.3l0 75.53 -130.62 0 130.62 -75.53zm-27.96 -384.76l112.26 64.68 -47.99 83.04 -112.26 -64.68 47.99 -83.04zm-56.34 97.65l112.26 64.68 -54.25 93.89 -73.86 -42.56 0 -88.89 15.86 -27.13zm-32.55 -121.44l0 95.98 -129.36 0 0 -95.98 129.36 0zm-129.36 419.39l0 -64.68 129.36 0 0 64.68c0,35.47 -29.21,64.68 -64.68,64.68 -35.47,0 -64.68,-29.21 -64.68,-64.68zm484.08 64.68l-95.98 0 0 -129.36 95.98 0 0 129.36zm-112.67 -129.36l0 129.37 -108.5 -0 0 -85.13 76.37 -44.23 32.13 0z"/>
      </g>
    </g>
  </g>
</svg>